<svg width="16" height="16" viewBox="0 0 16 16" fill="none" xmlns="http://www.w3.org/2000/svg">
<path d="M12.7188 0H3.28125C1.47197 0 0 1.47197 0 3.28125V12.7188C0 14.528 1.47197 16 3.28125 16H12.7188C14.528 16 16 14.528 16 12.7188V3.28125C16 1.47197 14.528 0 12.7188 0ZM4.92653 12.3286C4.782 12.5789 4.51884 12.719 4.24862 12.7191C4.11616 12.7191 3.98203 12.6854 3.85931 12.6146C3.48625 12.3992 3.35797 11.9204 3.57334 11.5474L3.727 11.2812H5.53122L4.92653 12.3286ZM3.45312 10.6562C3.02234 10.6562 2.67188 10.3058 2.67188 9.875C2.67188 9.44422 3.02234 9.09375 3.45312 9.09375H4.98994L7.09788 5.44269L6.52659 4.45319C6.31122 4.08012 6.43947 3.60137 6.81253 3.38597H6.81256C7.18563 3.17059 7.66437 3.29891 7.87975 3.67194L8 3.88022L8.12025 3.67197C8.33572 3.29887 8.81447 3.17062 9.18744 3.386C9.36816 3.49034 9.49744 3.65881 9.55144 3.86037C9.60547 4.06194 9.57772 4.2725 9.47338 4.45322L6.79416 9.09375H8.48413L9.38625 10.6562H3.45312ZM12.5469 10.6562H11.9122L12.4266 11.5473C12.642 11.9204 12.5138 12.3991 12.1407 12.6145C12.0203 12.684 11.8867 12.7196 11.7513 12.7196C11.6834 12.7196 11.6152 12.7107 11.5478 12.6926C11.3463 12.6386 11.1778 12.5093 11.0734 12.3285L8.36081 7.63016L9.26291 6.06766L11.0101 9.09375H12.5469C12.9777 9.09375 13.3281 9.44422 13.3281 9.875C13.3281 10.3058 12.9777 10.6562 12.5469 10.6562Z" fill="white"/>
</svg>
