<svg width="16" height="16" viewBox="0 0 16 16" fill="none" xmlns="http://www.w3.org/2000/svg">
<g clip-path="url(#clip0)">
<path d="M1.18555 0.589355C0.996094 0.839722 0.890625 1.14771 0.890625 1.4773V14.5227C0.890625 14.8289 0.981934 15.1165 1.14685 15.3567L8.245 7.95288L1.18555 0.589355Z" fill="white"/>
<path d="M8.89478 7.27479L11.1975 4.87294L3.10315 0.199717C2.75183 -0.00316428 2.34876 -0.05126 1.97266 0.0544529L8.89478 7.27479Z" fill="white"/>
<path d="M8.89441 8.63062L1.90234 15.9238C2.0531 15.9745 2.20911 16 2.36523 16C2.61853 16 2.87195 15.9334 3.10278 15.8001L11.2554 11.0931L8.89441 8.63062Z" fill="white"/>
<path d="M14.4009 6.72254L12.0344 5.3562L9.54492 7.95276L12.0925 10.6102L14.4009 9.27747C14.8628 9.01087 15.1386 8.53321 15.1386 8C15.1386 7.46668 14.8628 6.98914 14.4009 6.72254Z" fill="white"/>
</g>
<defs>
<clipPath id="clip0">
<rect width="15.9688" height="16" fill="white"/>
</clipPath>
</defs>
</svg>
